<svg width="229" height="50" viewBox="0 0 229 50" fill="none" xmlns="http://www.w3.org/2000/svg">
<path fill-rule="evenodd" clip-rule="evenodd" d="M113.499 28C113.662 28 113.821 28.0531 113.951 28.1513C114.081 28.2495 114.176 28.3873 114.22 28.544L115.033 31.39C115.209 32.0029 115.537 32.5611 115.988 33.0118C116.438 33.4626 116.997 33.7909 117.609 33.966L120.455 34.779C120.612 34.8239 120.75 34.9185 120.848 35.0486C120.946 35.1786 120.999 35.3371 120.999 35.5C120.999 35.6629 120.946 35.8214 120.848 35.9514C120.75 36.0815 120.612 36.1761 120.455 36.221L117.609 37.034C116.997 37.2091 116.438 37.5374 115.988 37.9882C115.537 38.4389 115.209 38.9971 115.033 39.61L114.22 42.456C114.176 42.6126 114.081 42.7503 113.951 42.8484C113.821 42.9464 113.662 42.9995 113.499 42.9995C113.337 42.9995 113.178 42.9464 113.048 42.8484C112.918 42.7503 112.823 42.6126 112.778 42.456L111.965 39.61C111.79 38.9971 111.462 38.4389 111.011 37.9882C110.561 37.5374 110.002 37.2091 109.389 37.034L106.543 36.221C106.387 36.1761 106.249 36.0815 106.151 35.9514C106.053 35.8214 106 35.6629 106 35.5C106 35.3371 106.053 35.1786 106.151 35.0486C106.249 34.9185 106.387 34.8239 106.543 34.779L109.389 33.966C110.002 33.7909 110.561 33.4626 111.011 33.0118C111.462 32.5611 111.79 32.0029 111.965 31.39L112.778 28.544C112.823 28.3873 112.918 28.2495 113.048 28.1513C113.178 28.0531 113.336 28 113.499 28ZM122.499 25C122.667 24.9999 122.829 25.0558 122.961 25.1587C123.093 25.2616 123.187 25.4057 123.227 25.568L123.485 26.604C123.721 27.544 124.455 28.278 125.395 28.514L126.431 28.772C126.594 28.8123 126.739 28.9059 126.842 29.0378C126.945 29.1697 127.001 29.3325 127.001 29.5C127.001 29.6675 126.945 29.8303 126.842 29.9622C126.739 30.0941 126.594 30.1877 126.431 30.228L125.395 30.486C124.455 30.722 123.721 31.456 123.485 32.396L123.227 33.432C123.187 33.5946 123.094 33.7391 122.962 33.8423C122.83 33.9456 122.667 34.0017 122.499 34.0017C122.332 34.0017 122.169 33.9456 122.037 33.8423C121.905 33.7391 121.812 33.5946 121.771 33.432L121.513 32.396C121.398 31.9344 121.159 31.5129 120.823 31.1765C120.487 30.8401 120.065 30.6014 119.603 30.486L118.567 30.228C118.405 30.1877 118.26 30.0941 118.157 29.9622C118.054 29.8303 117.998 29.6675 117.998 29.5C117.998 29.3325 118.054 29.1697 118.157 29.0378C118.26 28.9059 118.405 28.8123 118.567 28.772L119.603 28.514C120.065 28.3986 120.487 28.1599 120.823 27.8235C121.159 27.4871 121.398 27.0656 121.513 26.604L121.771 25.568C121.812 25.4057 121.906 25.2616 122.038 25.1587C122.17 25.0558 122.332 24.9999 122.499 25ZM120.999 38.5C121.157 38.4999 121.311 38.5494 121.438 38.6415C121.566 38.7336 121.662 38.8636 121.711 39.013L122.105 40.196C122.255 40.643 122.605 40.995 123.053 41.144L124.236 41.539C124.385 41.589 124.515 41.6845 124.607 41.8121C124.698 41.9397 124.748 42.0929 124.748 42.25C124.748 42.4071 124.698 42.5603 124.607 42.6879C124.515 42.8155 124.385 42.911 124.236 42.961L123.053 43.356C122.606 43.506 122.254 43.856 122.105 44.304L121.71 45.487C121.66 45.636 121.565 45.7655 121.437 45.8572C121.31 45.9489 121.157 45.9983 120.999 45.9983C120.842 45.9983 120.689 45.9489 120.562 45.8572C120.434 45.7655 120.338 45.636 120.288 45.487L119.893 44.304C119.82 44.0833 119.696 43.8827 119.531 43.7182C119.367 43.5537 119.166 43.4297 118.945 43.356L117.762 42.961C117.613 42.911 117.484 42.8155 117.392 42.6879C117.301 42.5603 117.251 42.4071 117.251 42.25C117.251 42.0929 117.301 41.9397 117.392 41.8121C117.484 41.6845 117.613 41.589 117.762 41.539L118.945 41.144C119.392 40.994 119.744 40.644 119.893 40.196L120.288 39.013C120.338 38.8637 120.434 38.7339 120.561 38.6418C120.689 38.5497 120.842 38.5001 120.999 38.5Z" fill="#E50914"/>
<path d="M1.72334 19V1.2C3.30667 1.08333 4.63167 1.025 5.69834 1.025C7.39834 1.025 8.79834 1.46667 9.89834 2.35C10.9983 3.21667 11.5483 4.45 11.5483 6.05C11.5483 7.13333 11.2317 8.14167 10.5983 9.075C9.96501 10.0083 9.25667 10.75 8.47334 11.3C9.09001 12.15 9.84834 13.1667 10.7483 14.35C11.665 15.5167 12.2567 16.25 12.5233 16.55C13.54 17.6333 14.69 18.25 15.9733 18.4L15.9483 19.2C14.9317 19.1833 14.1067 19.0333 13.4733 18.75C12.84 18.45 12.2317 18 11.6483 17.4C11.0817 16.8 9.65667 14.9333 7.37334 11.8C5.74001 11.8 4.25667 11.75 2.92334 11.65V19H1.72334ZM6.64834 10.8C7.38167 10.8 8.16501 10.3167 8.99834 9.35C9.83167 8.38333 10.2483 7.26667 10.2483 6C10.2483 4.71667 9.81501 3.75 8.94834 3.1C8.09834 2.43333 6.96501 2.1 5.54834 2.1C4.79834 2.1 3.92334 2.13333 2.92334 2.2V10.675C4.25667 10.7583 5.49834 10.8 6.64834 10.8ZM24.7116 19.25C22.395 19.25 20.4533 18.4417 18.8866 16.825C17.32 15.2083 16.5366 13.2333 16.5366 10.9C16.5366 8.55 17.32 6.56667 18.8866 4.95C20.4533 3.33333 22.395 2.525 24.7116 2.525C27.0283 2.525 28.97 3.33333 30.5366 4.95C32.1033 6.56667 32.8866 8.55 32.8866 10.9C32.8866 13.2333 32.1033 15.2083 30.5366 16.825C28.97 18.4417 27.0283 19.25 24.7116 19.25ZM24.7116 3.55C22.7116 3.55 21.045 4.25833 19.7116 5.675C18.395 7.09167 17.7366 8.83333 17.7366 10.9C17.7366 12.95 18.395 14.6833 19.7116 16.1C21.045 17.5 22.7116 18.2 24.7116 18.2C26.7283 18.2 28.395 17.5 29.7116 16.1C31.0283 14.6833 31.6866 12.95 31.6866 10.9C31.6866 8.83333 31.0283 7.09167 29.7116 5.675C28.395 4.25833 26.7283 3.55 24.7116 3.55ZM50.323 19V10.8H39.0479V19H37.8979V2.775H39.0479V9.775H50.323V2.775H51.473V19H50.323ZM58.278 13.375L55.953 19H54.778L61.578 2.675H62.253L69.103 19H67.828L65.478 13.375H58.278ZM61.853 4.525C61.603 5.275 61.378 5.9 61.178 6.4L58.678 12.4H65.078L62.603 6.425C62.2197 5.49167 61.9697 4.85833 61.853 4.525ZM72.395 19V2.675H72.945L83.595 14.925C83.9784 15.3583 84.3284 15.7917 84.645 16.225C84.9784 16.6417 85.1534 16.8583 85.17 16.875C85.1367 16.475 85.12 15.6917 85.12 14.525V2.775H86.27V19.1H85.72L74.87 6.65L73.495 4.975C73.5284 5.30833 73.545 6.09167 73.545 7.325V19H72.395ZM102.727 3.975L102.777 6.1V19H101.577V0.975H102.127L113.902 14.55C114.702 15.5 115.319 16.2583 115.752 16.825C115.685 16.025 115.652 15.1083 115.652 14.075V1.125H116.852V19.15H116.302L104.302 5.325C103.469 4.375 102.935 3.74167 102.702 3.425L102.727 3.975ZM123.152 19V2.775H124.302V19H123.152ZM140.155 2.775L133.23 10.6C135.964 13.9167 137.83 16.0167 138.83 16.9C139.847 17.7833 140.855 18.2833 141.855 18.4L141.83 19.175C140.897 19.1583 140.139 19.025 139.555 18.775C138.972 18.5083 138.455 18.1583 138.005 17.725C137.555 17.2917 136.589 16.2333 135.105 14.55C133.639 12.85 132.539 11.55 131.805 10.65L138.78 2.775H140.155ZM131.455 2.775V19H130.305V2.775H131.455ZM156.015 17.325C154.915 18.6083 153.24 19.25 150.99 19.25C148.74 19.25 147.065 18.6083 145.965 17.325C144.865 16.0417 144.315 14.2667 144.315 12V2.775H145.465V12C145.465 16.15 147.307 18.225 150.99 18.225C154.674 18.225 156.515 16.15 156.515 12V2.775H157.665V12C157.665 14.2667 157.115 16.0417 156.015 17.325ZM171.033 18.15H170.358L165.633 6.675C165.433 6.225 165.233 5.7 165.033 5.1C165.033 5.11667 165.017 5.20833 164.983 5.375C164.967 5.54167 164.942 5.76667 164.908 6.05C164.875 6.31667 164.842 6.54167 164.808 6.725L162.933 19H161.808L164.458 2.675H165.133L170.183 14.65C170.583 15.65 170.783 16.175 170.783 16.225C170.9 15.875 171.125 15.3583 171.458 14.675L177.083 2.675H177.758L180.233 19H179.033L177.258 6.675C177.142 5.85833 177.083 5.31667 177.083 5.05L176.358 6.7L171.033 18.15ZM184.504 2.85C185.687 2.75 186.904 2.7 188.154 2.7C189.404 2.7 190.47 3 191.354 3.6C192.254 4.2 192.704 5.075 192.704 6.225C192.704 7.09167 192.47 7.89167 192.004 8.625C191.537 9.35833 190.97 9.91667 190.304 10.3C191.387 10.6167 192.287 11.1833 193.004 12C193.72 12.8167 194.079 13.7417 194.079 14.775C194.079 16.2083 193.62 17.2917 192.704 18.025C191.804 18.7583 190.529 19.125 188.879 19.125C187.229 19.125 185.77 19.0667 184.504 18.95V2.85ZM186.779 10.8L185.654 10.825V18C186.37 18.0667 187.529 18.1 189.129 18.1C190.212 18.1 191.104 17.8 191.804 17.2C192.52 16.5833 192.879 15.8167 192.879 14.9C192.879 13.9667 192.52 13.1583 191.804 12.475C191.104 11.775 190.187 11.2833 189.054 11C188.47 10.8667 187.712 10.8 186.779 10.8ZM191.579 6.2C191.579 5.38333 191.237 4.75833 190.554 4.325C189.87 3.875 189.054 3.65 188.104 3.65C187.154 3.65 186.337 3.675 185.654 3.725V9.85C187.104 9.85 188.262 9.89167 189.129 9.975C189.779 9.625 190.345 9.11667 190.829 8.45C191.329 7.76667 191.579 7.01667 191.579 6.2ZM211.26 19V10.8H199.985V19H198.835V2.775H199.985V9.775H211.26V2.775H212.41V19H211.26ZM216.216 1.125H217.541V2.35L216.491 4.275H215.916L216.216 2.75V1.125ZM224.718 3.475C223.818 3.475 223.085 3.69167 222.518 4.125C221.951 4.55833 221.668 5.16667 221.668 5.95C221.668 6.85 222.043 7.65833 222.793 8.375C223.326 8.89167 224.01 9.44167 224.843 10.025C225.693 10.5917 226.276 11 226.593 11.25C226.91 11.5 227.293 11.8417 227.743 12.275C228.56 13.0917 228.968 14.0333 228.968 15.1C228.968 16.4833 228.501 17.5333 227.568 18.25C226.651 18.95 225.36 19.3 223.693 19.3C222.043 19.3 220.66 18.8667 219.543 18L220.143 17.125C221.276 17.8917 222.476 18.275 223.743 18.275C225.01 18.275 225.993 18.0083 226.693 17.475C227.41 16.9417 227.768 16.1917 227.768 15.225C227.768 14.3917 227.41 13.625 226.693 12.925C226.193 12.425 225.518 11.8833 224.668 11.3C223.835 10.7167 223.251 10.3 222.918 10.05C222.585 9.78333 222.193 9.43333 221.743 9C220.893 8.15 220.468 7.16667 220.468 6.05C220.468 4.93333 220.86 4.05833 221.643 3.425C222.443 2.79167 223.543 2.475 224.943 2.475C226.343 2.475 227.601 2.75 228.718 3.3L228.293 4.225C227.26 3.725 226.068 3.475 224.718 3.475Z" fill="black"/>
<path d="M6.3751 26.675H3.1501V34.625H6.3751C7.75843 34.625 8.80843 34.2667 9.5251 33.55C10.2584 32.8167 10.6251 31.8583 10.6251 30.675C10.6251 29.475 10.2584 28.5083 9.5251 27.775C8.80843 27.0417 7.75843 26.675 6.3751 26.675ZM2.4501 25.075H6.4751C8.40843 25.075 9.96676 25.5833 11.1501 26.6C12.3334 27.6 12.9251 28.95 12.9251 30.65C12.9251 32.3333 12.3334 33.6833 11.1501 34.7C9.96676 35.7 8.40843 36.2 6.4751 36.2H3.1751V41.45C3.1751 41.9333 3.38343 42.2583 3.8001 42.425C3.4501 42.9583 3.0001 43.225 2.4501 43.225C1.53343 43.225 1.0751 42.6417 1.0751 41.475V26.975C1.0751 26.4917 0.866764 26.1583 0.450098 25.975C0.850098 25.375 1.51676 25.075 2.4501 25.075ZM23.8524 32.825C23.1024 31.9417 22.1524 31.5 21.0024 31.5C19.8524 31.5 18.9608 31.9 18.3274 32.7C17.6941 33.4833 17.3774 34.6417 17.3774 36.175C17.3774 38.1583 17.7608 39.6 18.5274 40.5C19.3108 41.3833 20.2774 41.825 21.4274 41.825C22.5774 41.825 23.4608 41.425 24.0774 40.625C24.6941 39.825 25.0024 38.6583 25.0024 37.125C25.0024 35.125 24.6191 33.6917 23.8524 32.825ZM16.9774 31.8C18.1441 30.65 19.5524 30.075 21.2024 30.075C22.8524 30.075 24.2524 30.6583 25.4024 31.825C26.5691 32.975 27.1524 34.5917 27.1524 36.675C27.1524 38.7417 26.5691 40.35 25.4024 41.5C24.2524 42.65 22.8524 43.225 21.2024 43.225C19.5524 43.225 18.1441 42.65 16.9774 41.5C15.8274 40.35 15.2524 38.7333 15.2524 36.65C15.2524 34.5667 15.8274 32.95 16.9774 31.8ZM32.7329 31.825V32.75C33.4329 30.9667 34.5912 30.075 36.2079 30.075C36.9912 30.075 37.5996 30.275 38.0329 30.675C38.4662 31.075 38.6829 31.5417 38.6829 32.075C38.6829 32.5917 38.5496 32.9917 38.2829 33.275C38.0162 33.5417 37.7412 33.675 37.4579 33.675C37.1746 33.675 36.9162 33.6417 36.6829 33.575C36.7162 33.4083 36.7329 33.1917 36.7329 32.925C36.7329 32.0917 36.3162 31.675 35.4829 31.675C34.9329 31.675 34.3912 31.95 33.8579 32.5C33.3246 33.05 32.9496 33.8917 32.7329 35.025V41.45C32.7329 41.9333 32.9412 42.2583 33.3579 42.425C33.0079 42.9583 32.5746 43.225 32.0579 43.225C31.1246 43.225 30.6579 42.6417 30.6579 41.475V31.875C30.6579 31.3917 30.4496 31.0583 30.0329 30.875C30.3496 30.3417 30.7829 30.075 31.3329 30.075C32.2662 30.075 32.7329 30.6583 32.7329 31.825ZM43.2804 31.9V39.825C43.2804 40.4417 43.397 40.8833 43.6304 41.15C43.8804 41.4167 44.2804 41.55 44.8304 41.55C45.8637 41.55 46.8387 41.1083 47.7554 40.225C48.0387 40.375 48.1804 40.6167 48.1804 40.95C48.1804 41.5167 47.8137 42.0417 47.0804 42.525C46.347 42.9917 45.447 43.225 44.3804 43.225C42.247 43.225 41.1804 42.1167 41.1804 39.9V31.9C39.8304 31.85 39.1554 31.525 39.1554 30.925C39.1554 30.6083 39.2554 30.3667 39.4554 30.2C40.0387 30.2833 40.4887 30.325 40.8054 30.325H41.1804V28.3C41.1804 27.8333 40.972 27.5 40.5554 27.3C40.8887 26.7833 41.322 26.525 41.8554 26.525C42.8054 26.525 43.2804 27.1083 43.2804 28.275V30.325H47.4804C47.547 30.4417 47.5804 30.5833 47.5804 30.75C47.5804 31.5167 46.2637 31.9 43.6304 31.9H43.2804ZM51.9163 31.375V27.975C51.9163 26.6917 52.2663 25.7083 52.9663 25.025C53.683 24.3417 54.5413 24 55.5413 24C56.558 24 57.3413 24.2 57.8913 24.6C58.458 25 58.7413 25.475 58.7413 26.025C58.7413 26.3583 58.608 26.5833 58.3413 26.7C57.6746 25.9333 56.8913 25.55 55.9913 25.55C55.3913 25.55 54.908 25.7417 54.5413 26.125C54.1913 26.5083 54.0163 27.0917 54.0163 27.875V31.375H57.9413C58.0413 31.4917 58.0913 31.6417 58.0913 31.825C58.0913 32.5917 56.8496 32.975 54.3663 32.975H54.0163V46.175C54.0163 47.175 53.7996 47.925 53.3663 48.425C52.9496 48.9417 52.4163 49.2 51.7663 49.2C50.8663 49.2 50.233 48.775 49.8663 47.925C50.633 47.925 51.1663 47.75 51.4663 47.4C51.7663 47.0667 51.9163 46.5 51.9163 45.7V32.95C50.4496 32.8667 49.7163 32.5417 49.7163 31.975C49.7163 31.7417 49.8246 31.5 50.0413 31.25C50.4246 31.3333 50.983 31.375 51.7163 31.375H51.9163ZM67.4071 32.825C66.6571 31.9417 65.7071 31.5 64.5571 31.5C63.4071 31.5 62.5155 31.9 61.8821 32.7C61.2488 33.4833 60.9321 34.6417 60.9321 36.175C60.9321 38.1583 61.3155 39.6 62.0821 40.5C62.8655 41.3833 63.8321 41.825 64.9821 41.825C66.1321 41.825 67.0155 41.425 67.6321 40.625C68.2488 39.825 68.5571 38.6583 68.5571 37.125C68.5571 35.125 68.1738 33.6917 67.4071 32.825ZM60.5321 31.8C61.6988 30.65 63.1071 30.075 64.7571 30.075C66.4071 30.075 67.8071 30.6583 68.9571 31.825C70.1238 32.975 70.7071 34.5917 70.7071 36.675C70.7071 38.7417 70.1238 40.35 68.9571 41.5C67.8071 42.65 66.4071 43.225 64.7571 43.225C63.1071 43.225 61.6988 42.65 60.5321 41.5C59.3821 40.35 58.8071 38.7333 58.8071 36.65C58.8071 34.5667 59.3821 32.95 60.5321 31.8ZM76.2876 25.725V41.45C76.2876 41.9333 76.4959 42.2583 76.9126 42.425C76.5626 42.9583 76.1293 43.225 75.6126 43.225C74.6793 43.225 74.2126 42.6417 74.2126 41.475V25.775C74.2126 25.2917 74.0043 24.9583 73.5876 24.775C73.8709 24.2583 74.3043 24 74.8876 24C75.8209 24 76.2876 24.575 76.2876 25.725ZM81.9532 24.75C82.3866 24.75 82.7366 24.875 83.0032 25.125C83.2866 25.3583 83.4282 25.6917 83.4282 26.125C83.4282 26.5417 83.2449 26.925 82.8782 27.275C82.5282 27.6083 82.1282 27.775 81.6782 27.775C81.2282 27.775 80.8616 27.6417 80.5782 27.375C80.2949 27.1083 80.1532 26.7583 80.1532 26.325C80.1532 25.8917 80.3449 25.525 80.7282 25.225C81.1282 24.9083 81.5366 24.75 81.9532 24.75ZM82.9282 31.825V41.45C82.9282 41.9333 83.1366 42.2583 83.5532 42.425C83.2032 42.9583 82.7699 43.225 82.2532 43.225C81.3199 43.225 80.8532 42.6417 80.8532 41.475V31.875C80.8532 31.3917 80.6449 31.0583 80.2282 30.875C80.5449 30.3417 80.9782 30.075 81.5282 30.075C82.4616 30.075 82.9282 30.6583 82.9282 31.825ZM95.0194 32.825C94.2694 31.9417 93.3194 31.5 92.1694 31.5C91.0194 31.5 90.1278 31.9 89.4944 32.7C88.8611 33.4833 88.5444 34.6417 88.5444 36.175C88.5444 38.1583 88.9278 39.6 89.6944 40.5C90.4778 41.3833 91.4444 41.825 92.5944 41.825C93.7444 41.825 94.6278 41.425 95.2444 40.625C95.8611 39.825 96.1694 38.6583 96.1694 37.125C96.1694 35.125 95.7861 33.6917 95.0194 32.825ZM88.1444 31.8C89.3111 30.65 90.7194 30.075 92.3694 30.075C94.0194 30.075 95.4194 30.6583 96.5694 31.825C97.7361 32.975 98.3194 34.5917 98.3194 36.675C98.3194 38.7417 97.7361 40.35 96.5694 41.5C95.4194 42.65 94.0194 43.225 92.3694 43.225C90.7194 43.225 89.3111 42.65 88.1444 41.5C86.9944 40.35 86.4194 38.7333 86.4194 36.65C86.4194 34.5667 86.9944 32.95 88.1444 31.8Z" fill="black"/>
</svg>
